<?xml version="1.0" encoding="UTF-8" standalone="no"?>
<!-- Created with Colorful Stingrays by Bump Set Creative (https://www.svgbackgrounds.com/#colorful-stingrays) -->

<svg xmlns="http://www.w3.org/2000/svg" width="150" height="25" viewBox="0 0 300 100">
	<rect fill="#ffffff" width="300" height="100"/>
	<g stroke="#FFF" stroke-width="0" stroke-miterlimit="10">
		<circle fill="#06fffb" cx="0" cy="0" r="35"/>
		<circle fill="#FFFFD8" cx="100" cy="0" r="35"/>
		<circle fill="#a8ffd6" cx="50" cy="0" r="35"/>
		<circle fill="#78eee5" cx="200" cy="0" r="35"/>
		<circle fill="#CAF2FF" cx="150" cy="0" r="35"/>
		<circle fill="#06fffb" cx="300" cy="0" r="35"/>
		<circle fill="#c9daff" cx="250" cy="0" r="35"/>

		<circle fill="#dcffce" cx="25" cy="50" r="35"/>
		<circle fill="#78e5e5" cx="125" cy="50" r="35"/>
		<circle fill="#97e6ff" cx="75" cy="50" r="35"/>
		<circle fill="#9ad9ff" cx="225" cy="50" r="35"/>
		<circle fill="#FFFFF2" cx="175" cy="50" r="35"/>
		<circle fill="#82edff" cx="275" cy="50" r="35"/>

		<circle fill="#06fffb" cx="0" cy="100" r="35"/>
		<circle fill="#FFFFE9" cx="100" cy="100" r="35"/>
		<circle fill="#a8ffd6" cx="50" cy="100" r="35"/>
		<circle fill="#78dde5" cx="200" cy="100" r="35"/>
		<circle fill="#c9daff" cx="150" cy="100" r="35"/>
		<circle fill="#06fffb" cx="300" cy="100" r="35"/>
		<circle fill="#CAF2FF" cx="250" cy="100" r="35"/>


	</g>
</svg>